<mxfile host="app.diagrams.net" modified="2024-04-21T16:41:17.533Z" agent="Mozilla/5.0 (Windows NT 10.0; Win64; x64) AppleWebKit/537.36 (KHTML, like Gecko) Chrome/124.0.0.0 Safari/537.36" etag="Y9F9Fds5s9HgLXeiGy2p" version="24.2.7" type="device" pages="2">
  <diagram id="R2lEEEUBdFMjLlhIrx00" name="Page-1">
    <mxGraphModel dx="2350" dy="807" grid="1" gridSize="10" guides="1" tooltips="1" connect="1" arrows="1" fold="1" page="1" pageScale="1" pageWidth="850" pageHeight="1100" math="0" shadow="0" extFonts="Permanent Marker^https://fonts.googleapis.com/css?family=Permanent+Marker">
      <root>
        <mxCell id="0" />
        <mxCell id="1" parent="0" />
        <mxCell id="2OlZEWydDXqmRbXkHxMy-63" value="" style="edgeStyle=orthogonalEdgeStyle;rounded=0;orthogonalLoop=1;jettySize=auto;html=1;endArrow=none;endFill=0;" edge="1" parent="1">
          <mxGeometry relative="1" as="geometry">
            <mxPoint x="243.75" y="310" as="sourcePoint" />
            <mxPoint x="243.75" y="384.58333333333337" as="targetPoint" />
            <Array as="points">
              <mxPoint x="243.75" y="350" />
              <mxPoint x="243.75" y="350" />
            </Array>
          </mxGeometry>
        </mxCell>
        <mxCell id="2OlZEWydDXqmRbXkHxMy-71" value="1" style="edgeLabel;html=1;align=center;verticalAlign=middle;resizable=0;points=[];" vertex="1" connectable="0" parent="2OlZEWydDXqmRbXkHxMy-63">
          <mxGeometry x="-0.686" y="2" relative="1" as="geometry">
            <mxPoint x="3" y="-4" as="offset" />
          </mxGeometry>
        </mxCell>
        <mxCell id="2OlZEWydDXqmRbXkHxMy-76" value="" style="edgeStyle=orthogonalEdgeStyle;rounded=0;orthogonalLoop=1;jettySize=auto;html=1;exitX=0.75;exitY=1;exitDx=0;exitDy=0;endArrow=none;endFill=0;" edge="1" parent="1">
          <mxGeometry relative="1" as="geometry">
            <mxPoint x="280.25" y="307" as="sourcePoint" />
            <mxPoint x="332.1484398439843" y="433.9999999999999" as="targetPoint" />
            <Array as="points">
              <mxPoint x="279.75" y="351" />
              <mxPoint x="307.75" y="351" />
              <mxPoint x="307.75" y="434" />
            </Array>
          </mxGeometry>
        </mxCell>
        <mxCell id="2OlZEWydDXqmRbXkHxMy-78" value="1" style="edgeLabel;html=1;align=center;verticalAlign=middle;resizable=0;points=[];" vertex="1" connectable="0" parent="2OlZEWydDXqmRbXkHxMy-76">
          <mxGeometry x="-0.8629" y="2" relative="1" as="geometry">
            <mxPoint x="3" as="offset" />
          </mxGeometry>
        </mxCell>
        <mxCell id="2OlZEWydDXqmRbXkHxMy-82" value="" style="edgeStyle=orthogonalEdgeStyle;rounded=0;orthogonalLoop=1;jettySize=auto;html=1;endArrow=none;endFill=0;" edge="1" parent="1" source="iz3NB9-OL3ZbN0RMIKL1-1" target="2OlZEWydDXqmRbXkHxMy-81">
          <mxGeometry relative="1" as="geometry">
            <Array as="points">
              <mxPoint x="208.75" y="428" />
            </Array>
          </mxGeometry>
        </mxCell>
        <mxCell id="2OlZEWydDXqmRbXkHxMy-84" value="M" style="edgeLabel;html=1;align=center;verticalAlign=middle;resizable=0;points=[];" vertex="1" connectable="0" parent="2OlZEWydDXqmRbXkHxMy-82">
          <mxGeometry x="-0.7959" y="1" relative="1" as="geometry">
            <mxPoint x="6" y="-6" as="offset" />
          </mxGeometry>
        </mxCell>
        <mxCell id="2OlZEWydDXqmRbXkHxMy-91" value="" style="edgeStyle=orthogonalEdgeStyle;rounded=0;orthogonalLoop=1;jettySize=auto;html=1;endArrow=none;endFill=0;" edge="1" parent="1" target="2OlZEWydDXqmRbXkHxMy-90">
          <mxGeometry relative="1" as="geometry">
            <mxPoint x="168.75" y="300" as="sourcePoint" />
          </mxGeometry>
        </mxCell>
        <mxCell id="2OlZEWydDXqmRbXkHxMy-92" value="M" style="edgeLabel;html=1;align=center;verticalAlign=middle;resizable=0;points=[];" vertex="1" connectable="0" parent="2OlZEWydDXqmRbXkHxMy-91">
          <mxGeometry x="-0.6335" y="-4" relative="1" as="geometry">
            <mxPoint x="25" y="3" as="offset" />
          </mxGeometry>
        </mxCell>
        <mxCell id="2OlZEWydDXqmRbXkHxMy-103" value="" style="edgeStyle=orthogonalEdgeStyle;rounded=0;orthogonalLoop=1;jettySize=auto;html=1;endArrow=none;endFill=0;" edge="1" parent="1" source="iz3NB9-OL3ZbN0RMIKL1-1" target="2OlZEWydDXqmRbXkHxMy-102">
          <mxGeometry relative="1" as="geometry">
            <Array as="points">
              <mxPoint x="273.86" y="410" />
              <mxPoint x="303.86" y="410" />
            </Array>
          </mxGeometry>
        </mxCell>
        <mxCell id="2OlZEWydDXqmRbXkHxMy-108" value="1" style="edgeLabel;html=1;align=center;verticalAlign=middle;resizable=0;points=[];" vertex="1" connectable="0" parent="2OlZEWydDXqmRbXkHxMy-103">
          <mxGeometry x="-0.624" y="1" relative="1" as="geometry">
            <mxPoint x="-6" y="-34" as="offset" />
          </mxGeometry>
        </mxCell>
        <mxCell id="iz3NB9-OL3ZbN0RMIKL1-1" value="Resident" style="rounded=0;whiteSpace=wrap;html=1;fillColor=#f5f5f5;fontColor=#333333;strokeColor=#666666;" vertex="1" parent="1">
          <mxGeometry x="168.75" y="260" width="150" height="50" as="geometry" />
        </mxCell>
        <mxCell id="iz3NB9-OL3ZbN0RMIKL1-4" value="" style="edgeStyle=orthogonalEdgeStyle;rounded=0;orthogonalLoop=1;jettySize=auto;html=1;strokeColor=default;endArrow=none;endFill=0;" edge="1" parent="1" source="iz3NB9-OL3ZbN0RMIKL1-3" target="iz3NB9-OL3ZbN0RMIKL1-1">
          <mxGeometry relative="1" as="geometry">
            <Array as="points">
              <mxPoint x="208.75" y="250" />
              <mxPoint x="208.75" y="250" />
            </Array>
          </mxGeometry>
        </mxCell>
        <mxCell id="iz3NB9-OL3ZbN0RMIKL1-3" value="name" style="ellipse;whiteSpace=wrap;html=1;fillColor=#dae8fc;strokeColor=#6c8ebf;" vertex="1" parent="1">
          <mxGeometry x="188.75" y="213.32999999999998" width="40" height="26.67" as="geometry" />
        </mxCell>
        <mxCell id="iz3NB9-OL3ZbN0RMIKL1-9" style="edgeStyle=orthogonalEdgeStyle;rounded=0;orthogonalLoop=1;jettySize=auto;html=1;exitX=0.5;exitY=1;exitDx=0;exitDy=0;entryX=0;entryY=0.5;entryDx=0;entryDy=0;endArrow=none;endFill=0;" edge="1" parent="1" source="iz3NB9-OL3ZbN0RMIKL1-6" target="iz3NB9-OL3ZbN0RMIKL1-3">
          <mxGeometry relative="1" as="geometry" />
        </mxCell>
        <mxCell id="iz3NB9-OL3ZbN0RMIKL1-6" value="f_name" style="ellipse;whiteSpace=wrap;html=1;fillColor=#dae8fc;strokeColor=#6c8ebf;" vertex="1" parent="1">
          <mxGeometry x="138.75" y="160" width="50" height="30" as="geometry" />
        </mxCell>
        <mxCell id="iz3NB9-OL3ZbN0RMIKL1-12" style="edgeStyle=orthogonalEdgeStyle;rounded=0;orthogonalLoop=1;jettySize=auto;html=1;entryX=1;entryY=0.5;entryDx=0;entryDy=0;endArrow=none;endFill=0;" edge="1" parent="1" source="iz3NB9-OL3ZbN0RMIKL1-10" target="iz3NB9-OL3ZbN0RMIKL1-3">
          <mxGeometry relative="1" as="geometry" />
        </mxCell>
        <mxCell id="iz3NB9-OL3ZbN0RMIKL1-10" value="l_name" style="ellipse;whiteSpace=wrap;html=1;fillColor=#dae8fc;strokeColor=#6c8ebf;" vertex="1" parent="1">
          <mxGeometry x="223.75" y="150" width="50" height="30" as="geometry" />
        </mxCell>
        <mxCell id="iz3NB9-OL3ZbN0RMIKL1-14" style="edgeStyle=orthogonalEdgeStyle;rounded=0;orthogonalLoop=1;jettySize=auto;html=1;entryX=1;entryY=0.25;entryDx=0;entryDy=0;endArrow=none;endFill=0;" edge="1" parent="1" source="iz3NB9-OL3ZbN0RMIKL1-13" target="iz3NB9-OL3ZbN0RMIKL1-1">
          <mxGeometry relative="1" as="geometry" />
        </mxCell>
        <mxCell id="iz3NB9-OL3ZbN0RMIKL1-13" value="profile_pic" style="ellipse;whiteSpace=wrap;html=1;fillColor=#dae8fc;strokeColor=#6c8ebf;" vertex="1" parent="1">
          <mxGeometry x="368.75" y="200" width="70" height="30" as="geometry" />
        </mxCell>
        <mxCell id="iz3NB9-OL3ZbN0RMIKL1-16" style="edgeStyle=orthogonalEdgeStyle;rounded=0;orthogonalLoop=1;jettySize=auto;html=1;entryX=0;entryY=0.25;entryDx=0;entryDy=0;endArrow=none;endFill=0;" edge="1" parent="1" source="iz3NB9-OL3ZbN0RMIKL1-15" target="iz3NB9-OL3ZbN0RMIKL1-1">
          <mxGeometry relative="1" as="geometry" />
        </mxCell>
        <mxCell id="iz3NB9-OL3ZbN0RMIKL1-15" value="DOB" style="ellipse;whiteSpace=wrap;html=1;fillColor=#dae8fc;strokeColor=#6c8ebf;" vertex="1" parent="1">
          <mxGeometry x="88.75" y="220" width="40" height="26.67" as="geometry" />
        </mxCell>
        <mxCell id="iz3NB9-OL3ZbN0RMIKL1-18" value="" style="edgeStyle=orthogonalEdgeStyle;rounded=0;orthogonalLoop=1;jettySize=auto;html=1;endArrow=none;endFill=0;" edge="1" parent="1" source="iz3NB9-OL3ZbN0RMIKL1-17" target="iz3NB9-OL3ZbN0RMIKL1-1">
          <mxGeometry relative="1" as="geometry" />
        </mxCell>
        <mxCell id="iz3NB9-OL3ZbN0RMIKL1-17" value="Age" style="ellipse;whiteSpace=wrap;html=1;dashed=1;fillColor=#dae8fc;strokeColor=#6c8ebf;" vertex="1" parent="1">
          <mxGeometry x="55.75" y="272" width="40" height="26.67" as="geometry" />
        </mxCell>
        <mxCell id="iz3NB9-OL3ZbN0RMIKL1-21" style="edgeStyle=orthogonalEdgeStyle;rounded=0;orthogonalLoop=1;jettySize=auto;html=1;entryX=1;entryY=0.5;entryDx=0;entryDy=0;endArrow=none;endFill=0;" edge="1" parent="1" source="iz3NB9-OL3ZbN0RMIKL1-20" target="iz3NB9-OL3ZbN0RMIKL1-1">
          <mxGeometry relative="1" as="geometry" />
        </mxCell>
        <mxCell id="iz3NB9-OL3ZbN0RMIKL1-20" value="address" style="ellipse;whiteSpace=wrap;html=1;fillColor=#dae8fc;strokeColor=#6c8ebf;" vertex="1" parent="1">
          <mxGeometry x="418.75" y="271" width="50" height="26.67" as="geometry" />
        </mxCell>
        <mxCell id="iz3NB9-OL3ZbN0RMIKL1-23" style="edgeStyle=orthogonalEdgeStyle;rounded=0;orthogonalLoop=1;jettySize=auto;html=1;entryX=1;entryY=0.75;entryDx=0;entryDy=0;endArrow=none;endFill=0;" edge="1" parent="1" source="iz3NB9-OL3ZbN0RMIKL1-22" target="iz3NB9-OL3ZbN0RMIKL1-1">
          <mxGeometry relative="1" as="geometry" />
        </mxCell>
        <mxCell id="iz3NB9-OL3ZbN0RMIKL1-22" value="phone_number" style="ellipse;whiteSpace=wrap;html=1;fillColor=#dae8fc;strokeColor=#6c8ebf;" vertex="1" parent="1">
          <mxGeometry x="378.75" y="310" width="90" height="30" as="geometry" />
        </mxCell>
        <mxCell id="iz3NB9-OL3ZbN0RMIKL1-25" style="edgeStyle=orthogonalEdgeStyle;rounded=0;orthogonalLoop=1;jettySize=auto;html=1;entryX=0;entryY=1;entryDx=0;entryDy=0;endArrow=none;endFill=0;" edge="1" parent="1" source="iz3NB9-OL3ZbN0RMIKL1-24" target="iz3NB9-OL3ZbN0RMIKL1-1">
          <mxGeometry relative="1" as="geometry">
            <Array as="points">
              <mxPoint x="158.75" y="320" />
              <mxPoint x="158.75" y="310" />
            </Array>
          </mxGeometry>
        </mxCell>
        <mxCell id="iz3NB9-OL3ZbN0RMIKL1-24" value="email" style="ellipse;whiteSpace=wrap;html=1;fillColor=#dae8fc;strokeColor=#6c8ebf;" vertex="1" parent="1">
          <mxGeometry x="123.75" y="330" width="37" height="19.74" as="geometry" />
        </mxCell>
        <mxCell id="iz3NB9-OL3ZbN0RMIKL1-27" value="password" style="ellipse;whiteSpace=wrap;html=1;fillColor=#dae8fc;strokeColor=#6c8ebf;" vertex="1" parent="1">
          <mxGeometry x="138.75" y="355" width="60" height="25" as="geometry" />
        </mxCell>
        <mxCell id="iz3NB9-OL3ZbN0RMIKL1-28" style="edgeStyle=orthogonalEdgeStyle;rounded=0;orthogonalLoop=1;jettySize=auto;html=1;endArrow=none;endFill=0;" edge="1" parent="1" source="iz3NB9-OL3ZbN0RMIKL1-27">
          <mxGeometry relative="1" as="geometry">
            <mxPoint x="188.75" y="310" as="targetPoint" />
          </mxGeometry>
        </mxCell>
        <mxCell id="2OlZEWydDXqmRbXkHxMy-4" style="edgeStyle=orthogonalEdgeStyle;rounded=0;orthogonalLoop=1;jettySize=auto;html=1;entryX=1;entryY=1;entryDx=0;entryDy=0;endArrow=none;endFill=0;" edge="1" parent="1" source="2OlZEWydDXqmRbXkHxMy-1" target="iz3NB9-OL3ZbN0RMIKL1-1">
          <mxGeometry relative="1" as="geometry" />
        </mxCell>
        <mxCell id="2OlZEWydDXqmRbXkHxMy-1" value="bio" style="ellipse;whiteSpace=wrap;html=1;fillColor=#dae8fc;strokeColor=#6c8ebf;" vertex="1" parent="1">
          <mxGeometry x="368.75" y="355" width="40" height="26.67" as="geometry" />
        </mxCell>
        <mxCell id="2OlZEWydDXqmRbXkHxMy-69" value="" style="edgeStyle=orthogonalEdgeStyle;rounded=0;orthogonalLoop=1;jettySize=auto;html=1;endArrow=none;endFill=0;entryX=1;entryY=0.5;entryDx=0;entryDy=0;" edge="1" parent="1" target="2OlZEWydDXqmRbXkHxMy-68">
          <mxGeometry relative="1" as="geometry">
            <mxPoint x="48.749999999999886" y="566.0588235294117" as="sourcePoint" />
            <mxPoint x="-1.419999999999959" y="615.0000000000002" as="targetPoint" />
            <Array as="points">
              <mxPoint x="38.860000000000014" y="566" />
              <mxPoint x="38.860000000000014" y="615" />
              <mxPoint x="-1.1399999999999864" y="615" />
            </Array>
          </mxGeometry>
        </mxCell>
        <mxCell id="2OlZEWydDXqmRbXkHxMy-73" value="1" style="edgeLabel;html=1;align=center;verticalAlign=middle;resizable=0;points=[];" vertex="1" connectable="0" parent="2OlZEWydDXqmRbXkHxMy-69">
          <mxGeometry x="-0.6706" relative="1" as="geometry">
            <mxPoint x="-6" as="offset" />
          </mxGeometry>
        </mxCell>
        <mxCell id="2OlZEWydDXqmRbXkHxMy-14" value="Incident" style="rounded=0;whiteSpace=wrap;html=1;fillColor=#f5f5f5;fontColor=#333333;strokeColor=#666666;" vertex="1" parent="1">
          <mxGeometry x="48.75" y="530" width="99" height="40" as="geometry" />
        </mxCell>
        <mxCell id="2OlZEWydDXqmRbXkHxMy-19" value="residenr_id" style="ellipse;whiteSpace=wrap;html=1;fillColor=#f8cecc;strokeColor=#b85450;" vertex="1" parent="1">
          <mxGeometry x="254.75" y="200" width="74" height="30" as="geometry" />
        </mxCell>
        <mxCell id="2OlZEWydDXqmRbXkHxMy-20" style="edgeStyle=orthogonalEdgeStyle;rounded=0;orthogonalLoop=1;jettySize=auto;html=1;entryX=0.678;entryY=-0.013;entryDx=0;entryDy=0;entryPerimeter=0;endArrow=none;endFill=0;" edge="1" parent="1" source="2OlZEWydDXqmRbXkHxMy-19" target="iz3NB9-OL3ZbN0RMIKL1-1">
          <mxGeometry relative="1" as="geometry" />
        </mxCell>
        <mxCell id="2OlZEWydDXqmRbXkHxMy-27" style="edgeStyle=orthogonalEdgeStyle;rounded=0;orthogonalLoop=1;jettySize=auto;html=1;endArrow=none;endFill=0;" edge="1" parent="1" source="2OlZEWydDXqmRbXkHxMy-21" target="2OlZEWydDXqmRbXkHxMy-14">
          <mxGeometry relative="1" as="geometry">
            <Array as="points">
              <mxPoint x="63.75" y="530" />
              <mxPoint x="63.75" y="530" />
            </Array>
          </mxGeometry>
        </mxCell>
        <mxCell id="2OlZEWydDXqmRbXkHxMy-21" value="incident_date" style="ellipse;whiteSpace=wrap;html=1;fillColor=#dae8fc;strokeColor=#6c8ebf;" vertex="1" parent="1">
          <mxGeometry x="18.75" y="459.16" width="90" height="34.17" as="geometry" />
        </mxCell>
        <mxCell id="2OlZEWydDXqmRbXkHxMy-22" value="content" style="ellipse;whiteSpace=wrap;html=1;fillColor=#dae8fc;strokeColor=#6c8ebf;" vertex="1" parent="1">
          <mxGeometry x="168.75" y="486.6700000000001" width="50" height="26.67" as="geometry" />
        </mxCell>
        <mxCell id="2OlZEWydDXqmRbXkHxMy-26" style="edgeStyle=orthogonalEdgeStyle;rounded=0;orthogonalLoop=1;jettySize=auto;html=1;exitX=0.5;exitY=1;exitDx=0;exitDy=0;entryX=0;entryY=0.25;entryDx=0;entryDy=0;endArrow=none;endFill=0;" edge="1" parent="1" source="2OlZEWydDXqmRbXkHxMy-23" target="2OlZEWydDXqmRbXkHxMy-14">
          <mxGeometry relative="1" as="geometry" />
        </mxCell>
        <mxCell id="2OlZEWydDXqmRbXkHxMy-23" value="incident_id" style="ellipse;whiteSpace=wrap;html=1;fillColor=#f8cecc;strokeColor=#b85450;" vertex="1" parent="1">
          <mxGeometry x="-51.25" y="486.6700000000001" width="90" height="30" as="geometry" />
        </mxCell>
        <mxCell id="2OlZEWydDXqmRbXkHxMy-29" style="edgeStyle=orthogonalEdgeStyle;rounded=0;orthogonalLoop=1;jettySize=auto;html=1;entryX=1;entryY=0.5;entryDx=0;entryDy=0;endArrow=none;endFill=0;" edge="1" parent="1" source="2OlZEWydDXqmRbXkHxMy-24" target="2OlZEWydDXqmRbXkHxMy-14">
          <mxGeometry relative="1" as="geometry" />
        </mxCell>
        <mxCell id="2OlZEWydDXqmRbXkHxMy-24" value="title" style="ellipse;whiteSpace=wrap;html=1;fillColor=#dae8fc;strokeColor=#6c8ebf;" vertex="1" parent="1">
          <mxGeometry x="198.75" y="536.33" width="40" height="26.67" as="geometry" />
        </mxCell>
        <mxCell id="2OlZEWydDXqmRbXkHxMy-28" style="edgeStyle=orthogonalEdgeStyle;rounded=0;orthogonalLoop=1;jettySize=auto;html=1;entryX=0.861;entryY=-0.005;entryDx=0;entryDy=0;entryPerimeter=0;endArrow=none;endFill=0;" edge="1" parent="1" source="2OlZEWydDXqmRbXkHxMy-22" target="2OlZEWydDXqmRbXkHxMy-14">
          <mxGeometry relative="1" as="geometry" />
        </mxCell>
        <mxCell id="2OlZEWydDXqmRbXkHxMy-30" value="Attachment" style="rounded=0;whiteSpace=wrap;html=1;fillColor=#f5f5f5;fontColor=#333333;strokeColor=#666666;" vertex="1" parent="1">
          <mxGeometry x="-101.25" y="670" width="90" height="40" as="geometry" />
        </mxCell>
        <mxCell id="2OlZEWydDXqmRbXkHxMy-35" style="edgeStyle=orthogonalEdgeStyle;rounded=0;orthogonalLoop=1;jettySize=auto;html=1;entryX=0.25;entryY=1;entryDx=0;entryDy=0;endArrow=none;endFill=0;" edge="1" parent="1" source="2OlZEWydDXqmRbXkHxMy-31" target="2OlZEWydDXqmRbXkHxMy-30">
          <mxGeometry relative="1" as="geometry" />
        </mxCell>
        <mxCell id="2OlZEWydDXqmRbXkHxMy-31" value="file_name" style="ellipse;whiteSpace=wrap;html=1;fillColor=#dae8fc;strokeColor=#6c8ebf;" vertex="1" parent="1">
          <mxGeometry x="-124.25" y="770" width="90" height="34.17" as="geometry" />
        </mxCell>
        <mxCell id="2OlZEWydDXqmRbXkHxMy-32" value="size" style="ellipse;whiteSpace=wrap;html=1;fillColor=#dae8fc;strokeColor=#6c8ebf;" vertex="1" parent="1">
          <mxGeometry x="-31.25" y="753.75" width="50" height="26.67" as="geometry" />
        </mxCell>
        <mxCell id="2OlZEWydDXqmRbXkHxMy-33" value="attachment_id" style="ellipse;whiteSpace=wrap;html=1;fillColor=#f8cecc;strokeColor=#b85450;" vertex="1" parent="1">
          <mxGeometry x="-141.25" y="610.0000000000001" width="90" height="30" as="geometry" />
        </mxCell>
        <mxCell id="2OlZEWydDXqmRbXkHxMy-34" style="edgeStyle=orthogonalEdgeStyle;rounded=0;orthogonalLoop=1;jettySize=auto;html=1;entryX=0.35;entryY=-0.083;entryDx=0;entryDy=0;entryPerimeter=0;endArrow=none;endFill=0;" edge="1" parent="1" source="2OlZEWydDXqmRbXkHxMy-33" target="2OlZEWydDXqmRbXkHxMy-30">
          <mxGeometry relative="1" as="geometry" />
        </mxCell>
        <mxCell id="2OlZEWydDXqmRbXkHxMy-36" style="edgeStyle=orthogonalEdgeStyle;rounded=0;orthogonalLoop=1;jettySize=auto;html=1;entryX=0.58;entryY=1.015;entryDx=0;entryDy=0;entryPerimeter=0;endArrow=none;endFill=0;" edge="1" parent="1" source="2OlZEWydDXqmRbXkHxMy-32" target="2OlZEWydDXqmRbXkHxMy-30">
          <mxGeometry relative="1" as="geometry" />
        </mxCell>
        <mxCell id="2OlZEWydDXqmRbXkHxMy-37" value="Product" style="rounded=0;whiteSpace=wrap;html=1;fillColor=#f5f5f5;fontColor=#333333;strokeColor=#666666;" vertex="1" parent="1">
          <mxGeometry x="478.75" y="493.33" width="99" height="40" as="geometry" />
        </mxCell>
        <mxCell id="2OlZEWydDXqmRbXkHxMy-38" style="edgeStyle=orthogonalEdgeStyle;rounded=0;orthogonalLoop=1;jettySize=auto;html=1;endArrow=none;endFill=0;" edge="1" parent="1" source="2OlZEWydDXqmRbXkHxMy-39" target="2OlZEWydDXqmRbXkHxMy-37">
          <mxGeometry relative="1" as="geometry" />
        </mxCell>
        <mxCell id="2OlZEWydDXqmRbXkHxMy-39" value="name" style="ellipse;whiteSpace=wrap;html=1;fillColor=#dae8fc;strokeColor=#6c8ebf;" vertex="1" parent="1">
          <mxGeometry x="482.75" y="422.33" width="90" height="34.17" as="geometry" />
        </mxCell>
        <mxCell id="2OlZEWydDXqmRbXkHxMy-40" value="quantity" style="ellipse;whiteSpace=wrap;html=1;fillColor=#dae8fc;strokeColor=#6c8ebf;" vertex="1" parent="1">
          <mxGeometry x="598.75" y="450.00000000000006" width="50" height="26.67" as="geometry" />
        </mxCell>
        <mxCell id="2OlZEWydDXqmRbXkHxMy-41" style="edgeStyle=orthogonalEdgeStyle;rounded=0;orthogonalLoop=1;jettySize=auto;html=1;exitX=0.5;exitY=1;exitDx=0;exitDy=0;entryX=0;entryY=0.25;entryDx=0;entryDy=0;endArrow=none;endFill=0;" edge="1" parent="1" source="2OlZEWydDXqmRbXkHxMy-42" target="2OlZEWydDXqmRbXkHxMy-37">
          <mxGeometry relative="1" as="geometry" />
        </mxCell>
        <mxCell id="2OlZEWydDXqmRbXkHxMy-42" value="product_id" style="ellipse;whiteSpace=wrap;html=1;fillColor=#f8cecc;strokeColor=#b85450;" vertex="1" parent="1">
          <mxGeometry x="378.75" y="450.00000000000006" width="90" height="30" as="geometry" />
        </mxCell>
        <mxCell id="2OlZEWydDXqmRbXkHxMy-43" style="edgeStyle=orthogonalEdgeStyle;rounded=0;orthogonalLoop=1;jettySize=auto;html=1;entryX=1;entryY=0.5;entryDx=0;entryDy=0;endArrow=none;endFill=0;" edge="1" parent="1" source="2OlZEWydDXqmRbXkHxMy-44" target="2OlZEWydDXqmRbXkHxMy-37">
          <mxGeometry relative="1" as="geometry" />
        </mxCell>
        <mxCell id="2OlZEWydDXqmRbXkHxMy-44" value="cost" style="ellipse;whiteSpace=wrap;html=1;fillColor=#dae8fc;strokeColor=#6c8ebf;" vertex="1" parent="1">
          <mxGeometry x="628.75" y="499.66" width="40" height="26.67" as="geometry" />
        </mxCell>
        <mxCell id="2OlZEWydDXqmRbXkHxMy-45" style="edgeStyle=orthogonalEdgeStyle;rounded=0;orthogonalLoop=1;jettySize=auto;html=1;entryX=0.861;entryY=-0.005;entryDx=0;entryDy=0;entryPerimeter=0;endArrow=none;endFill=0;" edge="1" parent="1" source="2OlZEWydDXqmRbXkHxMy-40" target="2OlZEWydDXqmRbXkHxMy-37">
          <mxGeometry relative="1" as="geometry" />
        </mxCell>
        <mxCell id="2OlZEWydDXqmRbXkHxMy-46" value="created_time" style="ellipse;whiteSpace=wrap;html=1;fillColor=#dae8fc;strokeColor=#6c8ebf;" vertex="1" parent="1">
          <mxGeometry x="117.5" y="605.83" width="85.11" height="34.17" as="geometry" />
        </mxCell>
        <mxCell id="2OlZEWydDXqmRbXkHxMy-47" style="edgeStyle=orthogonalEdgeStyle;rounded=0;orthogonalLoop=1;jettySize=auto;html=1;entryX=0.845;entryY=1.017;entryDx=0;entryDy=0;entryPerimeter=0;endArrow=none;endFill=0;" edge="1" parent="1" source="2OlZEWydDXqmRbXkHxMy-46" target="2OlZEWydDXqmRbXkHxMy-14">
          <mxGeometry relative="1" as="geometry" />
        </mxCell>
        <mxCell id="2OlZEWydDXqmRbXkHxMy-48" value="Community Event" style="rounded=0;whiteSpace=wrap;html=1;fillColor=#f5f5f5;fontColor=#333333;strokeColor=#666666;" vertex="1" parent="1">
          <mxGeometry x="418.75" y="660" width="99" height="40" as="geometry" />
        </mxCell>
        <mxCell id="2OlZEWydDXqmRbXkHxMy-49" style="edgeStyle=orthogonalEdgeStyle;rounded=0;orthogonalLoop=1;jettySize=auto;html=1;endArrow=none;endFill=0;" edge="1" parent="1" source="2OlZEWydDXqmRbXkHxMy-50" target="2OlZEWydDXqmRbXkHxMy-48">
          <mxGeometry relative="1" as="geometry" />
        </mxCell>
        <mxCell id="2OlZEWydDXqmRbXkHxMy-50" value="information" style="ellipse;whiteSpace=wrap;html=1;fillColor=#dae8fc;strokeColor=#6c8ebf;" vertex="1" parent="1">
          <mxGeometry x="422.75" y="590" width="90" height="34.17" as="geometry" />
        </mxCell>
        <mxCell id="2OlZEWydDXqmRbXkHxMy-51" value="location" style="ellipse;whiteSpace=wrap;html=1;fillColor=#dae8fc;strokeColor=#6c8ebf;" vertex="1" parent="1">
          <mxGeometry x="538.75" y="616.6700000000001" width="50" height="26.67" as="geometry" />
        </mxCell>
        <mxCell id="2OlZEWydDXqmRbXkHxMy-52" style="edgeStyle=orthogonalEdgeStyle;rounded=0;orthogonalLoop=1;jettySize=auto;html=1;exitX=0.5;exitY=1;exitDx=0;exitDy=0;entryX=0;entryY=0.25;entryDx=0;entryDy=0;endArrow=none;endFill=0;" edge="1" parent="1" source="2OlZEWydDXqmRbXkHxMy-53" target="2OlZEWydDXqmRbXkHxMy-48">
          <mxGeometry relative="1" as="geometry" />
        </mxCell>
        <mxCell id="2OlZEWydDXqmRbXkHxMy-53" value="event_id" style="ellipse;whiteSpace=wrap;html=1;fillColor=#f8cecc;strokeColor=#b85450;" vertex="1" parent="1">
          <mxGeometry x="318.75" y="616.6700000000001" width="90" height="30" as="geometry" />
        </mxCell>
        <mxCell id="2OlZEWydDXqmRbXkHxMy-54" style="edgeStyle=orthogonalEdgeStyle;rounded=0;orthogonalLoop=1;jettySize=auto;html=1;entryX=1;entryY=0.5;entryDx=0;entryDy=0;endArrow=none;endFill=0;" edge="1" parent="1" source="2OlZEWydDXqmRbXkHxMy-55" target="2OlZEWydDXqmRbXkHxMy-48">
          <mxGeometry relative="1" as="geometry" />
        </mxCell>
        <mxCell id="2OlZEWydDXqmRbXkHxMy-55" value="event_date" style="ellipse;whiteSpace=wrap;html=1;fillColor=#dae8fc;strokeColor=#6c8ebf;" vertex="1" parent="1">
          <mxGeometry x="568.75" y="670" width="80" height="20" as="geometry" />
        </mxCell>
        <mxCell id="2OlZEWydDXqmRbXkHxMy-56" style="edgeStyle=orthogonalEdgeStyle;rounded=0;orthogonalLoop=1;jettySize=auto;html=1;entryX=0.861;entryY=-0.005;entryDx=0;entryDy=0;entryPerimeter=0;endArrow=none;endFill=0;" edge="1" parent="1" source="2OlZEWydDXqmRbXkHxMy-51" target="2OlZEWydDXqmRbXkHxMy-48">
          <mxGeometry relative="1" as="geometry" />
        </mxCell>
        <mxCell id="2OlZEWydDXqmRbXkHxMy-57" value="created_time" style="ellipse;whiteSpace=wrap;html=1;fillColor=#dae8fc;strokeColor=#6c8ebf;" vertex="1" parent="1">
          <mxGeometry x="528.75" y="710" width="130" height="30" as="geometry" />
        </mxCell>
        <mxCell id="2OlZEWydDXqmRbXkHxMy-58" style="edgeStyle=orthogonalEdgeStyle;rounded=0;orthogonalLoop=1;jettySize=auto;html=1;entryX=0.845;entryY=1.017;entryDx=0;entryDy=0;entryPerimeter=0;endArrow=none;endFill=0;" edge="1" parent="1" source="2OlZEWydDXqmRbXkHxMy-57" target="2OlZEWydDXqmRbXkHxMy-48">
          <mxGeometry relative="1" as="geometry" />
        </mxCell>
        <mxCell id="2OlZEWydDXqmRbXkHxMy-60" style="edgeStyle=orthogonalEdgeStyle;rounded=0;orthogonalLoop=1;jettySize=auto;html=1;entryX=0.5;entryY=1;entryDx=0;entryDy=0;endArrow=none;endFill=0;" edge="1" parent="1" source="2OlZEWydDXqmRbXkHxMy-59" target="2OlZEWydDXqmRbXkHxMy-48">
          <mxGeometry relative="1" as="geometry" />
        </mxCell>
        <mxCell id="2OlZEWydDXqmRbXkHxMy-59" value="participants_nmuber" style="ellipse;whiteSpace=wrap;html=1;fillColor=#dae8fc;strokeColor=#6c8ebf;" vertex="1" parent="1">
          <mxGeometry x="410.25" y="740" width="115.5" height="30" as="geometry" />
        </mxCell>
        <mxCell id="2OlZEWydDXqmRbXkHxMy-64" style="edgeStyle=orthogonalEdgeStyle;rounded=0;orthogonalLoop=1;jettySize=auto;html=1;exitX=1;exitY=0.5;exitDx=0;exitDy=0;shape=link;" edge="1" parent="1">
          <mxGeometry relative="1" as="geometry">
            <mxPoint x="93.69999999999999" y="570" as="targetPoint" />
            <mxPoint x="263.7499999999999" y="407.5" as="sourcePoint" />
            <Array as="points">
              <mxPoint x="243.86" y="408" />
              <mxPoint x="243.86" y="650" />
              <mxPoint x="93.86000000000001" y="650" />
            </Array>
          </mxGeometry>
        </mxCell>
        <mxCell id="2OlZEWydDXqmRbXkHxMy-72" value="M" style="edgeLabel;html=1;align=center;verticalAlign=middle;resizable=0;points=[];" vertex="1" connectable="0" parent="2OlZEWydDXqmRbXkHxMy-64">
          <mxGeometry x="0.9556" y="4" relative="1" as="geometry">
            <mxPoint x="11" as="offset" />
          </mxGeometry>
        </mxCell>
        <mxCell id="2OlZEWydDXqmRbXkHxMy-62" value="Posts" style="rhombus;whiteSpace=wrap;html=1;fillColor=#fff2cc;strokeColor=#d6b656;rounded=0;" vertex="1" parent="1">
          <mxGeometry x="215.86" y="383.77" width="55.89" height="51.23" as="geometry" />
        </mxCell>
        <mxCell id="2OlZEWydDXqmRbXkHxMy-70" style="edgeStyle=orthogonalEdgeStyle;rounded=0;orthogonalLoop=1;jettySize=auto;html=1;entryX=0.75;entryY=0;entryDx=0;entryDy=0;shape=link;" edge="1" parent="1" source="2OlZEWydDXqmRbXkHxMy-68" target="2OlZEWydDXqmRbXkHxMy-30">
          <mxGeometry relative="1" as="geometry" />
        </mxCell>
        <mxCell id="2OlZEWydDXqmRbXkHxMy-74" value="M" style="edgeLabel;html=1;align=center;verticalAlign=middle;resizable=0;points=[];" vertex="1" connectable="0" parent="2OlZEWydDXqmRbXkHxMy-70">
          <mxGeometry x="0.6437" relative="1" as="geometry">
            <mxPoint x="8" as="offset" />
          </mxGeometry>
        </mxCell>
        <mxCell id="2OlZEWydDXqmRbXkHxMy-68" value="has" style="rhombus;whiteSpace=wrap;html=1;fillColor=#fff2cc;strokeColor=#d6b656;rounded=0;" vertex="1" parent="1">
          <mxGeometry x="-51.25" y="574.17" width="50" height="50" as="geometry" />
        </mxCell>
        <mxCell id="2OlZEWydDXqmRbXkHxMy-77" style="edgeStyle=orthogonalEdgeStyle;rounded=0;orthogonalLoop=1;jettySize=auto;html=1;entryX=0;entryY=1;entryDx=0;entryDy=0;shape=link;" edge="1" parent="1">
          <mxGeometry relative="1" as="geometry">
            <mxPoint x="478.75" y="524.3299999999999" as="targetPoint" />
            <mxPoint x="348.7499999999998" y="440.9999999999998" as="sourcePoint" />
            <Array as="points">
              <mxPoint x="348.75" y="524" />
            </Array>
          </mxGeometry>
        </mxCell>
        <mxCell id="2OlZEWydDXqmRbXkHxMy-79" value="M" style="edgeLabel;html=1;align=center;verticalAlign=middle;resizable=0;points=[];" vertex="1" connectable="0" parent="2OlZEWydDXqmRbXkHxMy-77">
          <mxGeometry x="0.9038" y="-2" relative="1" as="geometry">
            <mxPoint x="3" y="-12" as="offset" />
          </mxGeometry>
        </mxCell>
        <mxCell id="2OlZEWydDXqmRbXkHxMy-75" value="sells" style="rhombus;whiteSpace=wrap;html=1;fillColor=#fff2cc;strokeColor=#d6b656;rounded=0;" vertex="1" parent="1">
          <mxGeometry x="328.75" y="416.67" width="40" height="33.33" as="geometry" />
        </mxCell>
        <mxCell id="2OlZEWydDXqmRbXkHxMy-83" style="edgeStyle=orthogonalEdgeStyle;rounded=0;orthogonalLoop=1;jettySize=auto;html=1;entryX=0.75;entryY=0;entryDx=0;entryDy=0;endArrow=none;endFill=0;" edge="1" parent="1" source="2OlZEWydDXqmRbXkHxMy-81" target="2OlZEWydDXqmRbXkHxMy-14">
          <mxGeometry relative="1" as="geometry" />
        </mxCell>
        <mxCell id="2OlZEWydDXqmRbXkHxMy-85" value="N" style="edgeLabel;html=1;align=center;verticalAlign=middle;resizable=0;points=[];" vertex="1" connectable="0" parent="2OlZEWydDXqmRbXkHxMy-83">
          <mxGeometry x="0.792" y="-1" relative="1" as="geometry">
            <mxPoint x="-6" y="3" as="offset" />
          </mxGeometry>
        </mxCell>
        <mxCell id="2OlZEWydDXqmRbXkHxMy-81" value="Likes" style="rhombus;whiteSpace=wrap;html=1;fillColor=#fff2cc;strokeColor=#d6b656;rounded=0;" vertex="1" parent="1">
          <mxGeometry x="143.75" y="407" width="40" height="43" as="geometry" />
        </mxCell>
        <mxCell id="2OlZEWydDXqmRbXkHxMy-87" style="edgeStyle=orthogonalEdgeStyle;rounded=0;orthogonalLoop=1;jettySize=auto;html=1;entryX=0;entryY=0;entryDx=0;entryDy=0;endArrow=none;endFill=0;" edge="1" parent="1" source="2OlZEWydDXqmRbXkHxMy-86" target="2OlZEWydDXqmRbXkHxMy-81">
          <mxGeometry relative="1" as="geometry" />
        </mxCell>
        <mxCell id="2OlZEWydDXqmRbXkHxMy-86" value="id" style="ellipse;whiteSpace=wrap;html=1;fillColor=#f8cecc;strokeColor=#b85450;" vertex="1" parent="1">
          <mxGeometry x="93.75" y="387" width="30" height="20" as="geometry" />
        </mxCell>
        <mxCell id="2OlZEWydDXqmRbXkHxMy-89" style="edgeStyle=orthogonalEdgeStyle;rounded=0;orthogonalLoop=1;jettySize=auto;html=1;entryX=0;entryY=0.5;entryDx=0;entryDy=0;endArrow=none;endFill=0;" edge="1" parent="1" source="2OlZEWydDXqmRbXkHxMy-88" target="2OlZEWydDXqmRbXkHxMy-81">
          <mxGeometry relative="1" as="geometry" />
        </mxCell>
        <mxCell id="2OlZEWydDXqmRbXkHxMy-88" value="created_time" style="ellipse;whiteSpace=wrap;html=1;fillColor=#dae8fc;strokeColor=#6c8ebf;" vertex="1" parent="1">
          <mxGeometry x="48.75" y="414.5" width="68.75" height="28" as="geometry" />
        </mxCell>
        <mxCell id="2OlZEWydDXqmRbXkHxMy-94" style="edgeStyle=orthogonalEdgeStyle;rounded=0;orthogonalLoop=1;jettySize=auto;html=1;entryX=0;entryY=0.5;entryDx=0;entryDy=0;endArrow=none;endFill=0;" edge="1" parent="1" source="2OlZEWydDXqmRbXkHxMy-90" target="2OlZEWydDXqmRbXkHxMy-14">
          <mxGeometry relative="1" as="geometry">
            <Array as="points">
              <mxPoint x="-61.139999999999986" y="550" />
            </Array>
          </mxGeometry>
        </mxCell>
        <mxCell id="2OlZEWydDXqmRbXkHxMy-95" value="N" style="edgeLabel;html=1;align=center;verticalAlign=middle;resizable=0;points=[];" vertex="1" connectable="0" parent="2OlZEWydDXqmRbXkHxMy-94">
          <mxGeometry x="0.6931" y="-5" relative="1" as="geometry">
            <mxPoint x="27" y="-4" as="offset" />
          </mxGeometry>
        </mxCell>
        <mxCell id="2OlZEWydDXqmRbXkHxMy-90" value="Comments" style="rhombus;whiteSpace=wrap;html=1;fillColor=#fff2cc;strokeColor=#d6b656;rounded=0;" vertex="1" parent="1">
          <mxGeometry x="-91.25" y="370" width="60" height="60" as="geometry" />
        </mxCell>
        <mxCell id="2OlZEWydDXqmRbXkHxMy-99" style="edgeStyle=orthogonalEdgeStyle;rounded=0;orthogonalLoop=1;jettySize=auto;html=1;entryX=0;entryY=0.5;entryDx=0;entryDy=0;endArrow=none;endFill=0;" edge="1" parent="1" source="2OlZEWydDXqmRbXkHxMy-96" target="2OlZEWydDXqmRbXkHxMy-90">
          <mxGeometry relative="1" as="geometry">
            <mxPoint x="-96.13999999999999" y="399.58500000000004" as="targetPoint" />
          </mxGeometry>
        </mxCell>
        <mxCell id="2OlZEWydDXqmRbXkHxMy-96" value="comment_text" style="ellipse;whiteSpace=wrap;html=1;fillColor=#dae8fc;strokeColor=#6c8ebf;" vertex="1" parent="1">
          <mxGeometry x="-240" y="382.5" width="90" height="34.17" as="geometry" />
        </mxCell>
        <mxCell id="2OlZEWydDXqmRbXkHxMy-98" style="edgeStyle=orthogonalEdgeStyle;rounded=0;orthogonalLoop=1;jettySize=auto;html=1;entryX=0;entryY=0;entryDx=0;entryDy=0;endArrow=none;endFill=0;" edge="1" parent="1" source="2OlZEWydDXqmRbXkHxMy-97" target="2OlZEWydDXqmRbXkHxMy-90">
          <mxGeometry relative="1" as="geometry" />
        </mxCell>
        <mxCell id="2OlZEWydDXqmRbXkHxMy-97" value="created_time" style="ellipse;whiteSpace=wrap;html=1;fillColor=#dae8fc;strokeColor=#6c8ebf;" vertex="1" parent="1">
          <mxGeometry x="-181.14" y="330.00000000000006" width="68.75" height="28" as="geometry" />
        </mxCell>
        <mxCell id="2OlZEWydDXqmRbXkHxMy-101" style="edgeStyle=orthogonalEdgeStyle;rounded=0;orthogonalLoop=1;jettySize=auto;html=1;entryX=0;entryY=1;entryDx=0;entryDy=0;endArrow=none;endFill=0;" edge="1" parent="1" source="2OlZEWydDXqmRbXkHxMy-100" target="2OlZEWydDXqmRbXkHxMy-90">
          <mxGeometry relative="1" as="geometry" />
        </mxCell>
        <mxCell id="2OlZEWydDXqmRbXkHxMy-100" value="id" style="ellipse;whiteSpace=wrap;html=1;fillColor=#f8cecc;strokeColor=#b85450;" vertex="1" parent="1">
          <mxGeometry x="-146.14" y="435" width="30" height="30" as="geometry" />
        </mxCell>
        <mxCell id="2OlZEWydDXqmRbXkHxMy-109" style="edgeStyle=orthogonalEdgeStyle;rounded=0;orthogonalLoop=1;jettySize=auto;html=1;entryX=0;entryY=1;entryDx=0;entryDy=0;shape=link;" edge="1" parent="1" source="2OlZEWydDXqmRbXkHxMy-102" target="2OlZEWydDXqmRbXkHxMy-48">
          <mxGeometry relative="1" as="geometry">
            <Array as="points">
              <mxPoint x="303.86" y="720" />
              <mxPoint x="418.86" y="720" />
            </Array>
          </mxGeometry>
        </mxCell>
        <mxCell id="2OlZEWydDXqmRbXkHxMy-110" value="M" style="edgeLabel;html=1;align=center;verticalAlign=middle;resizable=0;points=[];" vertex="1" connectable="0" parent="2OlZEWydDXqmRbXkHxMy-109">
          <mxGeometry x="0.7763" y="1" relative="1" as="geometry">
            <mxPoint x="-3" y="-7" as="offset" />
          </mxGeometry>
        </mxCell>
        <mxCell id="2OlZEWydDXqmRbXkHxMy-102" value="Creates" style="rhombus;whiteSpace=wrap;html=1;fillColor=#fff2cc;strokeColor=#d6b656;rounded=0;" vertex="1" parent="1">
          <mxGeometry x="263.86" y="510" width="80" height="80" as="geometry" />
        </mxCell>
        <mxCell id="2OlZEWydDXqmRbXkHxMy-114" value="" style="edgeStyle=orthogonalEdgeStyle;rounded=0;orthogonalLoop=1;jettySize=auto;html=1;endArrow=none;endFill=0;" edge="1" parent="1" source="2OlZEWydDXqmRbXkHxMy-112" target="2OlZEWydDXqmRbXkHxMy-113">
          <mxGeometry relative="1" as="geometry" />
        </mxCell>
        <mxCell id="2OlZEWydDXqmRbXkHxMy-133" value="1" style="edgeLabel;html=1;align=center;verticalAlign=middle;resizable=0;points=[];" vertex="1" connectable="0" parent="2OlZEWydDXqmRbXkHxMy-114">
          <mxGeometry x="-0.5713" relative="1" as="geometry">
            <mxPoint x="5" y="3" as="offset" />
          </mxGeometry>
        </mxCell>
        <mxCell id="2OlZEWydDXqmRbXkHxMy-127" value="" style="edgeStyle=orthogonalEdgeStyle;rounded=0;orthogonalLoop=1;jettySize=auto;html=1;endArrow=none;endFill=0;" edge="1" parent="1" source="2OlZEWydDXqmRbXkHxMy-112" target="2OlZEWydDXqmRbXkHxMy-126">
          <mxGeometry relative="1" as="geometry" />
        </mxCell>
        <mxCell id="2OlZEWydDXqmRbXkHxMy-145" value="1" style="edgeLabel;html=1;align=center;verticalAlign=middle;resizable=0;points=[];" vertex="1" connectable="0" parent="2OlZEWydDXqmRbXkHxMy-127">
          <mxGeometry x="-0.7998" y="2" relative="1" as="geometry">
            <mxPoint x="2" as="offset" />
          </mxGeometry>
        </mxCell>
        <mxCell id="2OlZEWydDXqmRbXkHxMy-112" value="Resident" style="rounded=0;whiteSpace=wrap;html=1;fillColor=#f5f5f5;fontColor=#333333;strokeColor=#666666;" vertex="1" parent="1">
          <mxGeometry x="-300" y="206.67000000000002" width="90" height="40" as="geometry" />
        </mxCell>
        <mxCell id="2OlZEWydDXqmRbXkHxMy-116" value="" style="edgeStyle=orthogonalEdgeStyle;rounded=0;orthogonalLoop=1;jettySize=auto;html=1;endArrow=none;endFill=0;shape=link;" edge="1" parent="1" source="2OlZEWydDXqmRbXkHxMy-113" target="2OlZEWydDXqmRbXkHxMy-115">
          <mxGeometry relative="1" as="geometry" />
        </mxCell>
        <mxCell id="2OlZEWydDXqmRbXkHxMy-135" value="M" style="edgeLabel;html=1;align=center;verticalAlign=middle;resizable=0;points=[];" vertex="1" connectable="0" parent="2OlZEWydDXqmRbXkHxMy-116">
          <mxGeometry x="0.2429" relative="1" as="geometry">
            <mxPoint as="offset" />
          </mxGeometry>
        </mxCell>
        <mxCell id="2OlZEWydDXqmRbXkHxMy-113" value="Owns" style="rhombus;whiteSpace=wrap;html=1;fillColor=#fff2cc;strokeColor=#d6b656;rounded=0;" vertex="1" parent="1">
          <mxGeometry x="-295" y="66.67000000000002" width="80" height="80" as="geometry" />
        </mxCell>
        <mxCell id="2OlZEWydDXqmRbXkHxMy-118" value="" style="edgeStyle=orthogonalEdgeStyle;rounded=0;orthogonalLoop=1;jettySize=auto;html=1;endArrow=none;endFill=0;" edge="1" parent="1" source="2OlZEWydDXqmRbXkHxMy-115" target="2OlZEWydDXqmRbXkHxMy-117">
          <mxGeometry relative="1" as="geometry" />
        </mxCell>
        <mxCell id="2OlZEWydDXqmRbXkHxMy-139" value="1" style="edgeLabel;html=1;align=center;verticalAlign=middle;resizable=0;points=[];" vertex="1" connectable="0" parent="2OlZEWydDXqmRbXkHxMy-118">
          <mxGeometry x="-0.8084" y="1" relative="1" as="geometry">
            <mxPoint as="offset" />
          </mxGeometry>
        </mxCell>
        <mxCell id="2OlZEWydDXqmRbXkHxMy-115" value="Chat" style="whiteSpace=wrap;html=1;fillColor=#f5f5f5;strokeColor=#666666;fontColor=#333333;rounded=0;" vertex="1" parent="1">
          <mxGeometry x="-475" y="82.92" width="95" height="47.5" as="geometry" />
        </mxCell>
        <mxCell id="2OlZEWydDXqmRbXkHxMy-120" value="" style="edgeStyle=orthogonalEdgeStyle;rounded=0;orthogonalLoop=1;jettySize=auto;html=1;endArrow=none;endFill=0;shape=link;" edge="1" parent="1" source="2OlZEWydDXqmRbXkHxMy-117" target="2OlZEWydDXqmRbXkHxMy-119">
          <mxGeometry relative="1" as="geometry" />
        </mxCell>
        <mxCell id="2OlZEWydDXqmRbXkHxMy-140" value="M" style="edgeLabel;html=1;align=center;verticalAlign=middle;resizable=0;points=[];" vertex="1" connectable="0" parent="2OlZEWydDXqmRbXkHxMy-120">
          <mxGeometry x="0.7012" relative="1" as="geometry">
            <mxPoint as="offset" />
          </mxGeometry>
        </mxCell>
        <mxCell id="2OlZEWydDXqmRbXkHxMy-117" value="Contains" style="rhombus;whiteSpace=wrap;html=1;fillColor=#fff2cc;strokeColor=#d6b656;rounded=0;" vertex="1" parent="1">
          <mxGeometry x="-655" y="66.67000000000002" width="80" height="80" as="geometry" />
        </mxCell>
        <mxCell id="2OlZEWydDXqmRbXkHxMy-122" value="" style="edgeStyle=orthogonalEdgeStyle;rounded=0;orthogonalLoop=1;jettySize=auto;html=1;endArrow=none;endFill=0;shape=link;" edge="1" parent="1" source="2OlZEWydDXqmRbXkHxMy-119" target="2OlZEWydDXqmRbXkHxMy-121">
          <mxGeometry relative="1" as="geometry" />
        </mxCell>
        <mxCell id="2OlZEWydDXqmRbXkHxMy-147" value="M" style="edgeLabel;html=1;align=center;verticalAlign=middle;resizable=0;points=[];" vertex="1" connectable="0" parent="2OlZEWydDXqmRbXkHxMy-122">
          <mxGeometry x="-0.6" relative="1" as="geometry">
            <mxPoint as="offset" />
          </mxGeometry>
        </mxCell>
        <mxCell id="2OlZEWydDXqmRbXkHxMy-130" value="" style="edgeStyle=orthogonalEdgeStyle;rounded=0;orthogonalLoop=1;jettySize=auto;html=1;endArrow=none;endFill=0;" edge="1" parent="1" source="2OlZEWydDXqmRbXkHxMy-119" target="2OlZEWydDXqmRbXkHxMy-129">
          <mxGeometry relative="1" as="geometry" />
        </mxCell>
        <mxCell id="2OlZEWydDXqmRbXkHxMy-142" value="1" style="edgeLabel;html=1;align=center;verticalAlign=middle;resizable=0;points=[];" vertex="1" connectable="0" parent="2OlZEWydDXqmRbXkHxMy-130">
          <mxGeometry x="-0.5504" y="2" relative="1" as="geometry">
            <mxPoint x="4" y="-4" as="offset" />
          </mxGeometry>
        </mxCell>
        <mxCell id="2OlZEWydDXqmRbXkHxMy-119" value="Message" style="whiteSpace=wrap;html=1;fillColor=#f5f5f5;strokeColor=#666666;fontColor=#333333;rounded=0;" vertex="1" parent="1">
          <mxGeometry x="-675" y="236.67000000000002" width="120" height="60" as="geometry" />
        </mxCell>
        <mxCell id="2OlZEWydDXqmRbXkHxMy-124" value="" style="edgeStyle=orthogonalEdgeStyle;rounded=0;orthogonalLoop=1;jettySize=auto;html=1;endArrow=none;endFill=0;" edge="1" parent="1" source="2OlZEWydDXqmRbXkHxMy-121" target="2OlZEWydDXqmRbXkHxMy-123">
          <mxGeometry relative="1" as="geometry" />
        </mxCell>
        <mxCell id="2OlZEWydDXqmRbXkHxMy-148" value="1" style="edgeLabel;html=1;align=center;verticalAlign=middle;resizable=0;points=[];" vertex="1" connectable="0" parent="2OlZEWydDXqmRbXkHxMy-124">
          <mxGeometry x="0.6247" y="-1" relative="1" as="geometry">
            <mxPoint x="6" y="3" as="offset" />
          </mxGeometry>
        </mxCell>
        <mxCell id="2OlZEWydDXqmRbXkHxMy-121" value="Contains" style="rhombus;whiteSpace=wrap;html=1;fillColor=#fff2cc;strokeColor=#d6b656;rounded=0;" vertex="1" parent="1">
          <mxGeometry x="-455" y="226.67000000000002" width="80" height="80" as="geometry" />
        </mxCell>
        <mxCell id="2OlZEWydDXqmRbXkHxMy-123" value="Group Chat" style="whiteSpace=wrap;html=1;fillColor=#f5f5f5;strokeColor=#666666;fontColor=#333333;rounded=0;" vertex="1" parent="1">
          <mxGeometry x="-475" y="396.67" width="120" height="60" as="geometry" />
        </mxCell>
        <mxCell id="2OlZEWydDXqmRbXkHxMy-128" style="edgeStyle=orthogonalEdgeStyle;rounded=0;orthogonalLoop=1;jettySize=auto;html=1;entryX=1;entryY=0.75;entryDx=0;entryDy=0;endArrow=none;endFill=0;" edge="1" parent="1" source="2OlZEWydDXqmRbXkHxMy-126" target="2OlZEWydDXqmRbXkHxMy-123">
          <mxGeometry relative="1" as="geometry" />
        </mxCell>
        <mxCell id="2OlZEWydDXqmRbXkHxMy-146" value="M" style="edgeLabel;html=1;align=center;verticalAlign=middle;resizable=0;points=[];" vertex="1" connectable="0" parent="2OlZEWydDXqmRbXkHxMy-128">
          <mxGeometry x="0.804" y="-1" relative="1" as="geometry">
            <mxPoint as="offset" />
          </mxGeometry>
        </mxCell>
        <mxCell id="2OlZEWydDXqmRbXkHxMy-126" value="Owns" style="rhombus;whiteSpace=wrap;html=1;fillColor=#fff2cc;strokeColor=#d6b656;rounded=0;" vertex="1" parent="1">
          <mxGeometry x="-355" y="278" width="80" height="80" as="geometry" />
        </mxCell>
        <mxCell id="2OlZEWydDXqmRbXkHxMy-132" value="" style="edgeStyle=orthogonalEdgeStyle;rounded=0;orthogonalLoop=1;jettySize=auto;html=1;endArrow=none;endFill=0;shape=link;" edge="1" parent="1" source="2OlZEWydDXqmRbXkHxMy-129" target="2OlZEWydDXqmRbXkHxMy-131">
          <mxGeometry relative="1" as="geometry" />
        </mxCell>
        <mxCell id="2OlZEWydDXqmRbXkHxMy-143" value="M" style="edgeLabel;html=1;align=center;verticalAlign=middle;resizable=0;points=[];" vertex="1" connectable="0" parent="2OlZEWydDXqmRbXkHxMy-132">
          <mxGeometry x="0.2995" y="-1" relative="1" as="geometry">
            <mxPoint x="1" y="21" as="offset" />
          </mxGeometry>
        </mxCell>
        <mxCell id="2OlZEWydDXqmRbXkHxMy-129" value="Has" style="rhombus;whiteSpace=wrap;html=1;fillColor=#fff2cc;strokeColor=#d6b656;rounded=0;" vertex="1" parent="1">
          <mxGeometry x="-655" y="366.67" width="80" height="80" as="geometry" />
        </mxCell>
        <mxCell id="2OlZEWydDXqmRbXkHxMy-131" value="Message_Attachment" style="rounded=0;whiteSpace=wrap;html=1;fillColor=#f5f5f5;strokeColor=#666666;fontColor=#333333;" vertex="1" parent="1">
          <mxGeometry x="-675" y="536.6700000000001" width="120" height="60" as="geometry" />
        </mxCell>
        <mxCell id="2OlZEWydDXqmRbXkHxMy-153" style="edgeStyle=orthogonalEdgeStyle;rounded=0;orthogonalLoop=1;jettySize=auto;html=1;entryX=0.5;entryY=0;entryDx=0;entryDy=0;endArrow=none;endFill=0;" edge="1" parent="1" source="2OlZEWydDXqmRbXkHxMy-150" target="2OlZEWydDXqmRbXkHxMy-115">
          <mxGeometry relative="1" as="geometry" />
        </mxCell>
        <mxCell id="2OlZEWydDXqmRbXkHxMy-150" value="participant_name" style="ellipse;whiteSpace=wrap;html=1;fillColor=#dae8fc;strokeColor=#6c8ebf;" vertex="1" parent="1">
          <mxGeometry x="-477.5" y="20" width="100" height="30" as="geometry" />
        </mxCell>
        <mxCell id="2OlZEWydDXqmRbXkHxMy-154" style="edgeStyle=orthogonalEdgeStyle;rounded=0;orthogonalLoop=1;jettySize=auto;html=1;endArrow=none;endFill=0;" edge="1" parent="1" source="2OlZEWydDXqmRbXkHxMy-151" target="2OlZEWydDXqmRbXkHxMy-115">
          <mxGeometry relative="1" as="geometry" />
        </mxCell>
        <mxCell id="2OlZEWydDXqmRbXkHxMy-151" value="chat_id" style="ellipse;whiteSpace=wrap;html=1;fillColor=#f8cecc;strokeColor=#b85450;" vertex="1" parent="1">
          <mxGeometry x="-447.5" y="153.32999999999998" width="40" height="26.67" as="geometry" />
        </mxCell>
        <mxCell id="2OlZEWydDXqmRbXkHxMy-157" value="recipent_id" style="ellipse;whiteSpace=wrap;html=1;fillColor=#dae8fc;strokeColor=#6c8ebf;" vertex="1" parent="1">
          <mxGeometry x="-782" y="260.5" width="67.39" height="27.5" as="geometry" />
        </mxCell>
        <mxCell id="2OlZEWydDXqmRbXkHxMy-163" style="edgeStyle=orthogonalEdgeStyle;rounded=0;orthogonalLoop=1;jettySize=auto;html=1;entryX=0;entryY=0.25;entryDx=0;entryDy=0;endArrow=none;endFill=0;" edge="1" parent="1" source="2OlZEWydDXqmRbXkHxMy-158" target="2OlZEWydDXqmRbXkHxMy-119">
          <mxGeometry relative="1" as="geometry" />
        </mxCell>
        <mxCell id="2OlZEWydDXqmRbXkHxMy-158" value="sender_id" style="ellipse;whiteSpace=wrap;html=1;fillColor=#dae8fc;strokeColor=#6c8ebf;" vertex="1" parent="1">
          <mxGeometry x="-743.75" y="200.00000000000006" width="68.75" height="28" as="geometry" />
        </mxCell>
        <mxCell id="2OlZEWydDXqmRbXkHxMy-159" value="content" style="ellipse;whiteSpace=wrap;html=1;fillColor=#dae8fc;strokeColor=#6c8ebf;" vertex="1" parent="1">
          <mxGeometry x="-742.39" y="310" width="67.39" height="27.5" as="geometry" />
        </mxCell>
        <mxCell id="2OlZEWydDXqmRbXkHxMy-162" style="edgeStyle=orthogonalEdgeStyle;rounded=0;orthogonalLoop=1;jettySize=auto;html=1;entryX=0.75;entryY=0;entryDx=0;entryDy=0;endArrow=none;endFill=0;" edge="1" parent="1" source="2OlZEWydDXqmRbXkHxMy-160" target="2OlZEWydDXqmRbXkHxMy-119">
          <mxGeometry relative="1" as="geometry" />
        </mxCell>
        <mxCell id="2OlZEWydDXqmRbXkHxMy-160" value="creation_date" style="ellipse;whiteSpace=wrap;html=1;fillColor=#dae8fc;strokeColor=#6c8ebf;" vertex="1" parent="1">
          <mxGeometry x="-600" y="175.33" width="85" height="24.67" as="geometry" />
        </mxCell>
        <mxCell id="2OlZEWydDXqmRbXkHxMy-168" style="edgeStyle=orthogonalEdgeStyle;rounded=0;orthogonalLoop=1;jettySize=auto;html=1;entryX=1;entryY=0.75;entryDx=0;entryDy=0;endArrow=none;endFill=0;" edge="1" parent="1" source="2OlZEWydDXqmRbXkHxMy-161" target="2OlZEWydDXqmRbXkHxMy-119">
          <mxGeometry relative="1" as="geometry" />
        </mxCell>
        <mxCell id="2OlZEWydDXqmRbXkHxMy-161" value="message_id" style="ellipse;whiteSpace=wrap;html=1;fillColor=#f8cecc;strokeColor=#b85450;" vertex="1" parent="1">
          <mxGeometry x="-575" y="310" width="85" height="24.67" as="geometry" />
        </mxCell>
        <mxCell id="2OlZEWydDXqmRbXkHxMy-164" style="edgeStyle=orthogonalEdgeStyle;rounded=0;orthogonalLoop=1;jettySize=auto;html=1;entryX=0.006;entryY=0.633;entryDx=0;entryDy=0;entryPerimeter=0;endArrow=none;endFill=0;" edge="1" parent="1" source="2OlZEWydDXqmRbXkHxMy-157" target="2OlZEWydDXqmRbXkHxMy-119">
          <mxGeometry relative="1" as="geometry" />
        </mxCell>
        <mxCell id="2OlZEWydDXqmRbXkHxMy-167" style="edgeStyle=orthogonalEdgeStyle;rounded=0;orthogonalLoop=1;jettySize=auto;html=1;entryX=0.004;entryY=0.86;entryDx=0;entryDy=0;entryPerimeter=0;endArrow=none;endFill=0;" edge="1" parent="1" source="2OlZEWydDXqmRbXkHxMy-159" target="2OlZEWydDXqmRbXkHxMy-119">
          <mxGeometry relative="1" as="geometry" />
        </mxCell>
        <mxCell id="2OlZEWydDXqmRbXkHxMy-169" value="file_name" style="ellipse;whiteSpace=wrap;html=1;fillColor=#dae8fc;strokeColor=#6c8ebf;" vertex="1" parent="1">
          <mxGeometry x="-649" y="635.83" width="90" height="34.17" as="geometry" />
        </mxCell>
        <mxCell id="2OlZEWydDXqmRbXkHxMy-174" style="edgeStyle=orthogonalEdgeStyle;rounded=0;orthogonalLoop=1;jettySize=auto;html=1;endArrow=none;endFill=0;" edge="1" parent="1" source="2OlZEWydDXqmRbXkHxMy-170" target="2OlZEWydDXqmRbXkHxMy-131">
          <mxGeometry relative="1" as="geometry">
            <mxPoint x="-550" y="576.335" as="targetPoint" />
          </mxGeometry>
        </mxCell>
        <mxCell id="2OlZEWydDXqmRbXkHxMy-170" value="size" style="ellipse;whiteSpace=wrap;html=1;fillColor=#dae8fc;strokeColor=#6c8ebf;" vertex="1" parent="1">
          <mxGeometry x="-505" y="553.34" width="50" height="26.67" as="geometry" />
        </mxCell>
        <mxCell id="2OlZEWydDXqmRbXkHxMy-175" style="edgeStyle=orthogonalEdgeStyle;rounded=0;orthogonalLoop=1;jettySize=auto;html=1;entryX=0.585;entryY=0.98;entryDx=0;entryDy=0;entryPerimeter=0;endArrow=none;endFill=0;" edge="1" parent="1" source="2OlZEWydDXqmRbXkHxMy-169" target="2OlZEWydDXqmRbXkHxMy-131">
          <mxGeometry relative="1" as="geometry" />
        </mxCell>
        <mxCell id="2OlZEWydDXqmRbXkHxMy-177" style="edgeStyle=orthogonalEdgeStyle;rounded=0;orthogonalLoop=1;jettySize=auto;html=1;entryX=0.25;entryY=0;entryDx=0;entryDy=0;endArrow=none;endFill=0;" edge="1" parent="1" source="2OlZEWydDXqmRbXkHxMy-176" target="2OlZEWydDXqmRbXkHxMy-131">
          <mxGeometry relative="1" as="geometry" />
        </mxCell>
        <mxCell id="2OlZEWydDXqmRbXkHxMy-176" value="attachment_id" style="ellipse;whiteSpace=wrap;html=1;fillColor=#f8cecc;strokeColor=#b85450;" vertex="1" parent="1">
          <mxGeometry x="-782" y="498.3300000000001" width="90" height="30" as="geometry" />
        </mxCell>
        <mxCell id="2OlZEWydDXqmRbXkHxMy-182" style="edgeStyle=orthogonalEdgeStyle;rounded=0;orthogonalLoop=1;jettySize=auto;html=1;entryX=0.25;entryY=1;entryDx=0;entryDy=0;endArrow=none;endFill=0;" edge="1" parent="1" source="2OlZEWydDXqmRbXkHxMy-178" target="2OlZEWydDXqmRbXkHxMy-123">
          <mxGeometry relative="1" as="geometry" />
        </mxCell>
        <mxCell id="2OlZEWydDXqmRbXkHxMy-178" value="group_name" style="ellipse;whiteSpace=wrap;html=1;fillColor=#dae8fc;strokeColor=#6c8ebf;" vertex="1" parent="1">
          <mxGeometry x="-505" y="496.25000000000006" width="90" height="34.17" as="geometry" />
        </mxCell>
        <mxCell id="2OlZEWydDXqmRbXkHxMy-183" style="edgeStyle=orthogonalEdgeStyle;rounded=0;orthogonalLoop=1;jettySize=auto;html=1;entryX=0.75;entryY=1;entryDx=0;entryDy=0;endArrow=none;endFill=0;" edge="1" parent="1" source="2OlZEWydDXqmRbXkHxMy-179" target="2OlZEWydDXqmRbXkHxMy-123">
          <mxGeometry relative="1" as="geometry" />
        </mxCell>
        <mxCell id="2OlZEWydDXqmRbXkHxMy-179" value="members" style="ellipse;whiteSpace=wrap;html=1;fillColor=#dae8fc;strokeColor=#6c8ebf;" vertex="1" parent="1">
          <mxGeometry x="-407.5" y="495.83" width="90" height="34.17" as="geometry" />
        </mxCell>
        <mxCell id="2OlZEWydDXqmRbXkHxMy-181" style="edgeStyle=orthogonalEdgeStyle;rounded=0;orthogonalLoop=1;jettySize=auto;html=1;entryX=0;entryY=0.75;entryDx=0;entryDy=0;endArrow=none;endFill=0;" edge="1" parent="1" source="2OlZEWydDXqmRbXkHxMy-180" target="2OlZEWydDXqmRbXkHxMy-123">
          <mxGeometry relative="1" as="geometry" />
        </mxCell>
        <mxCell id="2OlZEWydDXqmRbXkHxMy-180" value="group_id" style="ellipse;whiteSpace=wrap;html=1;fillColor=#f8cecc;strokeColor=#b85450;" vertex="1" parent="1">
          <mxGeometry x="-580" y="430" width="85" height="24.67" as="geometry" />
        </mxCell>
      </root>
    </mxGraphModel>
  </diagram>
  <diagram id="lx1AyfRRJ973ZZyPTXQA" name="Page-2">
    <mxGraphModel dx="1050" dy="565" grid="1" gridSize="10" guides="1" tooltips="1" connect="1" arrows="1" fold="1" page="1" pageScale="1" pageWidth="850" pageHeight="1100" math="0" shadow="0">
      <root>
        <mxCell id="0" />
        <mxCell id="1" parent="0" />
        <mxCell id="W7vw-Z523qDLApG1ZZhe-1" value="" style="edgeStyle=entityRelationEdgeStyle;endArrow=ERzeroToMany;startArrow=ERone;endFill=1;startFill=0;" edge="1" parent="1" source="W7vw-Z523qDLApG1ZZhe-24" target="W7vw-Z523qDLApG1ZZhe-7">
          <mxGeometry width="100" height="100" relative="1" as="geometry">
            <mxPoint x="340" y="720" as="sourcePoint" />
            <mxPoint x="440" y="620" as="targetPoint" />
          </mxGeometry>
        </mxCell>
        <mxCell id="W7vw-Z523qDLApG1ZZhe-2" value="" style="edgeStyle=entityRelationEdgeStyle;endArrow=ERzeroToMany;startArrow=ERone;endFill=1;startFill=0;" edge="1" parent="1" source="W7vw-Z523qDLApG1ZZhe-4" target="W7vw-Z523qDLApG1ZZhe-17">
          <mxGeometry width="100" height="100" relative="1" as="geometry">
            <mxPoint x="400" y="180" as="sourcePoint" />
            <mxPoint x="460" y="205" as="targetPoint" />
          </mxGeometry>
        </mxCell>
        <mxCell id="W7vw-Z523qDLApG1ZZhe-3" value="Orders" style="shape=table;startSize=30;container=1;collapsible=1;childLayout=tableLayout;fixedRows=1;rowLines=0;fontStyle=1;align=center;resizeLast=1;" vertex="1" parent="1">
          <mxGeometry x="450" y="120" width="250" height="130" as="geometry" />
        </mxCell>
        <mxCell id="W7vw-Z523qDLApG1ZZhe-4" value="" style="shape=partialRectangle;collapsible=0;dropTarget=0;pointerEvents=0;fillColor=none;points=[[0,0.5],[1,0.5]];portConstraint=eastwest;top=0;left=0;right=0;bottom=1;" vertex="1" parent="W7vw-Z523qDLApG1ZZhe-3">
          <mxGeometry y="30" width="250" height="30" as="geometry" />
        </mxCell>
        <mxCell id="W7vw-Z523qDLApG1ZZhe-5" value="PK" style="shape=partialRectangle;overflow=hidden;connectable=0;fillColor=none;top=0;left=0;bottom=0;right=0;fontStyle=1;" vertex="1" parent="W7vw-Z523qDLApG1ZZhe-4">
          <mxGeometry width="30" height="30" as="geometry">
            <mxRectangle width="30" height="30" as="alternateBounds" />
          </mxGeometry>
        </mxCell>
        <mxCell id="W7vw-Z523qDLApG1ZZhe-6" value="order_id int NOT NULL " style="shape=partialRectangle;overflow=hidden;connectable=0;fillColor=none;top=0;left=0;bottom=0;right=0;align=left;spacingLeft=6;fontStyle=5;" vertex="1" parent="W7vw-Z523qDLApG1ZZhe-4">
          <mxGeometry x="30" width="220" height="30" as="geometry">
            <mxRectangle width="220" height="30" as="alternateBounds" />
          </mxGeometry>
        </mxCell>
        <mxCell id="W7vw-Z523qDLApG1ZZhe-7" value="" style="shape=partialRectangle;collapsible=0;dropTarget=0;pointerEvents=0;fillColor=none;points=[[0,0.5],[1,0.5]];portConstraint=eastwest;top=0;left=0;right=0;bottom=0;" vertex="1" parent="W7vw-Z523qDLApG1ZZhe-3">
          <mxGeometry y="60" width="250" height="30" as="geometry" />
        </mxCell>
        <mxCell id="W7vw-Z523qDLApG1ZZhe-8" value="FK1" style="shape=partialRectangle;overflow=hidden;connectable=0;fillColor=none;top=0;left=0;bottom=0;right=0;" vertex="1" parent="W7vw-Z523qDLApG1ZZhe-7">
          <mxGeometry width="30" height="30" as="geometry">
            <mxRectangle width="30" height="30" as="alternateBounds" />
          </mxGeometry>
        </mxCell>
        <mxCell id="W7vw-Z523qDLApG1ZZhe-9" value="customer_id int NOT NULL" style="shape=partialRectangle;overflow=hidden;connectable=0;fillColor=none;top=0;left=0;bottom=0;right=0;align=left;spacingLeft=6;" vertex="1" parent="W7vw-Z523qDLApG1ZZhe-7">
          <mxGeometry x="30" width="220" height="30" as="geometry">
            <mxRectangle width="220" height="30" as="alternateBounds" />
          </mxGeometry>
        </mxCell>
        <mxCell id="W7vw-Z523qDLApG1ZZhe-10" value="" style="shape=partialRectangle;collapsible=0;dropTarget=0;pointerEvents=0;fillColor=none;points=[[0,0.5],[1,0.5]];portConstraint=eastwest;top=0;left=0;right=0;bottom=0;" vertex="1" parent="W7vw-Z523qDLApG1ZZhe-3">
          <mxGeometry y="90" width="250" height="30" as="geometry" />
        </mxCell>
        <mxCell id="W7vw-Z523qDLApG1ZZhe-11" value="" style="shape=partialRectangle;overflow=hidden;connectable=0;fillColor=none;top=0;left=0;bottom=0;right=0;" vertex="1" parent="W7vw-Z523qDLApG1ZZhe-10">
          <mxGeometry width="30" height="30" as="geometry">
            <mxRectangle width="30" height="30" as="alternateBounds" />
          </mxGeometry>
        </mxCell>
        <mxCell id="W7vw-Z523qDLApG1ZZhe-12" value="order_date date NOT NULL" style="shape=partialRectangle;overflow=hidden;connectable=0;fillColor=none;top=0;left=0;bottom=0;right=0;align=left;spacingLeft=6;" vertex="1" parent="W7vw-Z523qDLApG1ZZhe-10">
          <mxGeometry x="30" width="220" height="30" as="geometry">
            <mxRectangle width="220" height="30" as="alternateBounds" />
          </mxGeometry>
        </mxCell>
        <mxCell id="W7vw-Z523qDLApG1ZZhe-13" value="Shipments" style="shape=table;startSize=30;container=1;collapsible=1;childLayout=tableLayout;fixedRows=1;rowLines=0;fontStyle=1;align=center;resizeLast=1;" vertex="1" parent="1">
          <mxGeometry x="450" y="280" width="250" height="130" as="geometry" />
        </mxCell>
        <mxCell id="W7vw-Z523qDLApG1ZZhe-14" value="" style="shape=partialRectangle;collapsible=0;dropTarget=0;pointerEvents=0;fillColor=none;points=[[0,0.5],[1,0.5]];portConstraint=eastwest;top=0;left=0;right=0;bottom=1;" vertex="1" parent="W7vw-Z523qDLApG1ZZhe-13">
          <mxGeometry y="30" width="250" height="30" as="geometry" />
        </mxCell>
        <mxCell id="W7vw-Z523qDLApG1ZZhe-15" value="PK" style="shape=partialRectangle;overflow=hidden;connectable=0;fillColor=none;top=0;left=0;bottom=0;right=0;fontStyle=1;" vertex="1" parent="W7vw-Z523qDLApG1ZZhe-14">
          <mxGeometry width="30" height="30" as="geometry">
            <mxRectangle width="30" height="30" as="alternateBounds" />
          </mxGeometry>
        </mxCell>
        <mxCell id="W7vw-Z523qDLApG1ZZhe-16" value="shipment_id int NOT NULL " style="shape=partialRectangle;overflow=hidden;connectable=0;fillColor=none;top=0;left=0;bottom=0;right=0;align=left;spacingLeft=6;fontStyle=5;" vertex="1" parent="W7vw-Z523qDLApG1ZZhe-14">
          <mxGeometry x="30" width="220" height="30" as="geometry">
            <mxRectangle width="220" height="30" as="alternateBounds" />
          </mxGeometry>
        </mxCell>
        <mxCell id="W7vw-Z523qDLApG1ZZhe-17" value="" style="shape=partialRectangle;collapsible=0;dropTarget=0;pointerEvents=0;fillColor=none;points=[[0,0.5],[1,0.5]];portConstraint=eastwest;top=0;left=0;right=0;bottom=0;" vertex="1" parent="W7vw-Z523qDLApG1ZZhe-13">
          <mxGeometry y="60" width="250" height="30" as="geometry" />
        </mxCell>
        <mxCell id="W7vw-Z523qDLApG1ZZhe-18" value="FK1" style="shape=partialRectangle;overflow=hidden;connectable=0;fillColor=none;top=0;left=0;bottom=0;right=0;" vertex="1" parent="W7vw-Z523qDLApG1ZZhe-17">
          <mxGeometry width="30" height="30" as="geometry">
            <mxRectangle width="30" height="30" as="alternateBounds" />
          </mxGeometry>
        </mxCell>
        <mxCell id="W7vw-Z523qDLApG1ZZhe-19" value="order_id int NOT NULL" style="shape=partialRectangle;overflow=hidden;connectable=0;fillColor=none;top=0;left=0;bottom=0;right=0;align=left;spacingLeft=6;" vertex="1" parent="W7vw-Z523qDLApG1ZZhe-17">
          <mxGeometry x="30" width="220" height="30" as="geometry">
            <mxRectangle width="220" height="30" as="alternateBounds" />
          </mxGeometry>
        </mxCell>
        <mxCell id="W7vw-Z523qDLApG1ZZhe-20" value="" style="shape=partialRectangle;collapsible=0;dropTarget=0;pointerEvents=0;fillColor=none;points=[[0,0.5],[1,0.5]];portConstraint=eastwest;top=0;left=0;right=0;bottom=0;" vertex="1" parent="W7vw-Z523qDLApG1ZZhe-13">
          <mxGeometry y="90" width="250" height="30" as="geometry" />
        </mxCell>
        <mxCell id="W7vw-Z523qDLApG1ZZhe-21" value="" style="shape=partialRectangle;overflow=hidden;connectable=0;fillColor=none;top=0;left=0;bottom=0;right=0;" vertex="1" parent="W7vw-Z523qDLApG1ZZhe-20">
          <mxGeometry width="30" height="30" as="geometry">
            <mxRectangle width="30" height="30" as="alternateBounds" />
          </mxGeometry>
        </mxCell>
        <mxCell id="W7vw-Z523qDLApG1ZZhe-22" value="shipment_date date NOT NULL" style="shape=partialRectangle;overflow=hidden;connectable=0;fillColor=none;top=0;left=0;bottom=0;right=0;align=left;spacingLeft=6;" vertex="1" parent="W7vw-Z523qDLApG1ZZhe-20">
          <mxGeometry x="30" width="220" height="30" as="geometry">
            <mxRectangle width="220" height="30" as="alternateBounds" />
          </mxGeometry>
        </mxCell>
        <mxCell id="W7vw-Z523qDLApG1ZZhe-23" value="Customers" style="shape=table;startSize=30;container=1;collapsible=1;childLayout=tableLayout;fixedRows=1;rowLines=0;fontStyle=1;align=center;resizeLast=1;" vertex="1" parent="1">
          <mxGeometry x="110" y="120" width="250" height="100" as="geometry" />
        </mxCell>
        <mxCell id="W7vw-Z523qDLApG1ZZhe-24" value="" style="shape=partialRectangle;collapsible=0;dropTarget=0;pointerEvents=0;fillColor=none;points=[[0,0.5],[1,0.5]];portConstraint=eastwest;top=0;left=0;right=0;bottom=1;" vertex="1" parent="W7vw-Z523qDLApG1ZZhe-23">
          <mxGeometry y="30" width="250" height="30" as="geometry" />
        </mxCell>
        <mxCell id="W7vw-Z523qDLApG1ZZhe-25" value="PK" style="shape=partialRectangle;overflow=hidden;connectable=0;fillColor=none;top=0;left=0;bottom=0;right=0;fontStyle=1;" vertex="1" parent="W7vw-Z523qDLApG1ZZhe-24">
          <mxGeometry width="30" height="30" as="geometry">
            <mxRectangle width="30" height="30" as="alternateBounds" />
          </mxGeometry>
        </mxCell>
        <mxCell id="W7vw-Z523qDLApG1ZZhe-26" value="customer_id int NOT NULL " style="shape=partialRectangle;overflow=hidden;connectable=0;fillColor=none;top=0;left=0;bottom=0;right=0;align=left;spacingLeft=6;fontStyle=5;" vertex="1" parent="W7vw-Z523qDLApG1ZZhe-24">
          <mxGeometry x="30" width="220" height="30" as="geometry">
            <mxRectangle width="220" height="30" as="alternateBounds" />
          </mxGeometry>
        </mxCell>
        <mxCell id="W7vw-Z523qDLApG1ZZhe-27" value="" style="shape=partialRectangle;collapsible=0;dropTarget=0;pointerEvents=0;fillColor=none;points=[[0,0.5],[1,0.5]];portConstraint=eastwest;top=0;left=0;right=0;bottom=0;" vertex="1" parent="W7vw-Z523qDLApG1ZZhe-23">
          <mxGeometry y="60" width="250" height="30" as="geometry" />
        </mxCell>
        <mxCell id="W7vw-Z523qDLApG1ZZhe-28" value="" style="shape=partialRectangle;overflow=hidden;connectable=0;fillColor=none;top=0;left=0;bottom=0;right=0;" vertex="1" parent="W7vw-Z523qDLApG1ZZhe-27">
          <mxGeometry width="30" height="30" as="geometry">
            <mxRectangle width="30" height="30" as="alternateBounds" />
          </mxGeometry>
        </mxCell>
        <mxCell id="W7vw-Z523qDLApG1ZZhe-29" value="customer_name char(50) NOT NULL" style="shape=partialRectangle;overflow=hidden;connectable=0;fillColor=none;top=0;left=0;bottom=0;right=0;align=left;spacingLeft=6;" vertex="1" parent="W7vw-Z523qDLApG1ZZhe-27">
          <mxGeometry x="30" width="220" height="30" as="geometry">
            <mxRectangle width="220" height="30" as="alternateBounds" />
          </mxGeometry>
        </mxCell>
      </root>
    </mxGraphModel>
  </diagram>
</mxfile>
